<svg width="14" height="14" viewBox="0 0 14 14" fill="none" xmlns="http://www.w3.org/2000/svg">
<rect width="14" height="14" fill="#1E1E1E"/>
<g id="listing page desktop" clip-path="url(#clip0_0_1)">
<rect width="1440" height="2746" transform="translate(-1188 -248)" fill="#F3F2F2"/>
<g id="&#240;&#159;&#166;&#134; icon &#34;setting 5&#34;">
<g id="Group">
<path id="Vector" d="M12.0258 13.9999C11.7314 13.9999 11.4873 13.7785 11.4873 13.5115V6.34872C11.4873 6.08175 11.7314 5.86035 12.0258 5.86035C12.3201 5.86035 12.5642 6.08175 12.5642 6.34872V13.5115C12.5642 13.7785 12.3201 13.9999 12.0258 13.9999Z" fill="#A81913"/>
<path id="Vector_2" d="M12.0258 4.23256C11.7314 4.23256 11.4873 4.01116 11.4873 3.74419V0.488372C11.4873 0.221395 11.7314 0 12.0258 0C12.3201 0 12.5642 0.221395 12.5642 0.488372V3.74419C12.5642 4.01116 12.3201 4.23256 12.0258 4.23256Z" fill="#A81913"/>
<path id="Vector_3" d="M6.99989 14.0001C6.70553 14.0001 6.46143 13.7787 6.46143 13.5118V10.256C6.46143 9.98897 6.70553 9.76758 6.99989 9.76758C7.29425 9.76758 7.53835 9.98897 7.53835 10.256V13.5118C7.53835 13.7787 7.29425 14.0001 6.99989 14.0001Z" fill="#A81913"/>
<path id="Vector_4" d="M6.99989 8.13953C6.70553 8.13953 6.46143 7.91814 6.46143 7.65116V0.488372C6.46143 0.221395 6.70553 0 6.99989 0C7.29425 0 7.53835 0.221395 7.53835 0.488372V7.65116C7.53835 7.91814 7.29425 8.13953 6.99989 8.13953Z" fill="#A81913"/>
<path id="Vector_5" d="M1.9745 13.9999C1.68014 13.9999 1.43604 13.7785 1.43604 13.5115V6.34872C1.43604 6.08175 1.68014 5.86035 1.9745 5.86035C2.26886 5.86035 2.51296 6.08175 2.51296 6.34872V13.5115C2.51296 13.7785 2.26886 13.9999 1.9745 13.9999Z" fill="#A81913"/>
<path id="Vector_6" d="M1.9745 4.23256C1.68014 4.23256 1.43604 4.01116 1.43604 3.74419V0.488372C1.43604 0.221395 1.68014 0 1.9745 0C2.26886 0 2.51296 0.221395 2.51296 0.488372V3.74419C2.51296 4.01116 2.26886 4.23256 1.9745 4.23256Z" fill="#A81913"/>
<path id="Vector_7" d="M3.41026 6.8371H0.538462C0.244103 6.8371 0 6.6157 0 6.34872C0 6.08175 0.244103 5.86035 0.538462 5.86035H3.41026C3.70462 5.86035 3.94872 6.08175 3.94872 6.34872C3.94872 6.6157 3.70462 6.8371 3.41026 6.8371Z" fill="#A81913"/>
<path id="Vector_8" d="M13.4615 6.8371H10.5897C10.2954 6.8371 10.0513 6.6157 10.0513 6.34872C10.0513 6.08175 10.2954 5.86035 10.5897 5.86035H13.4615C13.7559 5.86035 14 6.08175 14 6.34872C14 6.6157 13.7559 6.8371 13.4615 6.8371Z" fill="#A81913"/>
<path id="Vector_9" d="M8.43565 8.13983H5.56385C5.26949 8.13983 5.02539 7.91843 5.02539 7.65146C5.02539 7.38448 5.26949 7.16309 5.56385 7.16309H8.43565C8.73001 7.16309 8.97411 7.38448 8.97411 7.65146C8.97411 7.91843 8.73001 8.13983 8.43565 8.13983Z" fill="#A81913"/>
</g>
</g>
</g>
<defs>
<clipPath id="clip0_0_1">
<rect width="1440" height="2746" fill="white" transform="translate(-1188 -248)"/>
</clipPath>
</defs>
</svg>
