<svg width="18" height="19" viewBox="0 0 18 19" fill="none" xmlns="http://www.w3.org/2000/svg">
<rect width="18" height="19" fill="#1E1E1E"/>
<g id="detail page desktop 1" clip-path="url(#clip0_0_1)">
<rect width="1440" height="4584" transform="translate(-88 -1070)" fill="#F3F2F2"/>
<g id="Group">
<g id="Group_2">
<g id="Group_3">
<path id="Vector" d="M14.7856 14.9092H17.3571V17.2274C17.3571 17.6539 17.0691 18.0001 16.7142 18.0001H15.4285C15.0736 18.0001 14.7856 17.6539 14.7856 17.2274V14.9092Z" stroke="#3C3C3C"/>
</g>
<g id="Group_4">
<path id="Vector_2" d="M0.643066 14.9092H3.21449V17.2274C3.21449 17.6539 2.92649 18.0001 2.57164 18.0001H1.28592C0.931066 18.0001 0.643066 17.6539 0.643066 17.2274V14.9092Z" stroke="#3C3C3C"/>
</g>
</g>
<g id="Group_5">
<g id="Group_6">
<path id="Vector_3" d="M3.21449 7.18164H14.7859C16.206 7.18164 17.3574 8.5656 17.3574 10.2725V14.1362C17.3574 14.5627 17.0694 14.9089 16.7145 14.9089H1.28592C0.931066 14.9089 0.643066 14.5627 0.643066 14.1362V10.2725C0.643066 8.5656 1.79442 7.18164 3.21449 7.18164Z" stroke="#3C3C3C"/>
</g>
<g id="Group_7">
<path id="Vector_4" d="M14.7859 10.2729C15.1408 10.2729 15.4288 10.6191 15.4288 11.0457C15.4288 11.4722 15.1408 11.8184 14.7859 11.8184C14.4311 11.8184 14.1431 11.4722 14.1431 11.0457C14.1431 10.6191 14.4311 10.2729 14.7859 10.2729Z" fill="#3C3C3C"/>
</g>
<g id="Group_8">
<path id="Vector_5" d="M3.21415 10.2729C3.569 10.2729 3.857 10.6191 3.857 11.0457C3.857 11.4722 3.569 11.8184 3.21415 11.8184C2.85929 11.8184 2.57129 11.4722 2.57129 11.0457C2.57129 10.6191 2.85929 10.2729 3.21415 10.2729Z" fill="#3C3C3C"/>
</g>
<g id="Group_9">
<path id="Vector_6" d="M4.30254 1H13.6973C13.9653 1 14.2051 1.20014 14.299 1.5015L16.0713 7.18182H1.92847L3.70082 1.5015C3.79468 1.20014 4.03447 1 4.30254 1Z" stroke="#3C3C3C"/>
</g>
<g id="Group_10">
<path id="Vector_7" d="M0 4.86377H1.92857V6.40922H0V4.86377Z" fill="#3C3C3C"/>
</g>
<g id="Group_11">
<path id="Vector_8" d="M16.0713 4.86377H17.9999V6.40922H16.0713V4.86377Z" fill="#3C3C3C"/>
</g>
<g id="Group_12">
<path id="Vector_9" d="M5.14307 11.0449H12.8574" stroke="#3C3C3C"/>
</g>
</g>
</g>
</g>
<defs>
<clipPath id="clip0_0_1">
<rect width="1440" height="4584" fill="white" transform="translate(-88 -1070)"/>
</clipPath>
</defs>
</svg>
