<svg width="18" height="19" viewBox="0 0 18 19" fill="none" xmlns="http://www.w3.org/2000/svg">
<rect width="18" height="19" fill="#1E1E1E"/>
<g id="detail page desktop 1" clip-path="url(#clip0_0_1)">
<rect width="1440" height="4584" transform="translate(-88 -1003)" fill="#F3F2F2"/>
<g id="Group">
<g id="Group_2">
<g id="Group_3">
<g id="Group_4">
<path id="Vector" d="M4.1998 8.12367V17.838H1.7998V3.59033H16.1998V17.838H13.7998V8.12367C13.7998 7.76618 13.531 7.47605 13.1998 7.47605H4.7998C4.4686 7.47605 4.1998 7.76618 4.1998 8.12367Z" stroke="#3C3C3C"/>
</g>
<g id="Group_5">
<path id="Vector_2" d="M0 3.59033H18" stroke="#3C3C3C" stroke-linejoin="round"/>
</g>
<g id="Group_6">
<path id="Vector_3" d="M0 1H18" stroke="#3C3C3C" stroke-linejoin="round"/>
</g>
</g>
</g>
<g id="Group_7">
<g id="Group_8">
<g id="Group_9">
<path id="Vector_4" d="M9.0001 10.8887C10.6003 12.3801 11.4001 13.8327 11.4001 15.2459C11.4001 16.6764 10.3255 17.8363 9.0001 17.8363C7.6747 17.8363 6.6001 16.659 6.6001 15.2459C6.6001 13.8327 7.3999 12.3801 9.0001 10.8887Z" stroke="#3C3C3C"/>
</g>
</g>
<g id="Group_10">
<path id="Vector_5" d="M8.9999 15.0859C9.7457 15.0859 10.3499 15.7381 10.3499 16.5431C10.3499 17.3481 9.7457 18.0002 8.9999 18.0002C8.2541 18.0002 7.6499 17.3481 7.6499 16.5431C7.6499 15.7381 8.2541 15.0859 8.9999 15.0859Z" stroke="#3C3C3C" stroke-linejoin="round"/>
</g>
</g>
</g>
</g>
<defs>
<clipPath id="clip0_0_1">
<rect width="1440" height="4584" fill="white" transform="translate(-88 -1003)"/>
</clipPath>
</defs>
</svg>
