<svg width="33" height="33" viewBox="0 0 33 33" fill="none" xmlns="http://www.w3.org/2000/svg">
<rect width="33" height="33" fill="#1E1E1E"/>
<g id="detail page desktop 1" clip-path="url(#clip0_0_1)">
<rect width="1440" height="4584" transform="translate(-380 -706)" fill="#F3F2F2"/>
<g id="Frame 7164">
<rect width="33" height="33" rx="16.5" fill="black" fill-opacity="0.35"/>
<path id="Vector" d="M25.5161 11.6887C25.2058 10.9669 24.7584 10.3128 24.1988 9.76298C23.6389 9.21154 22.9787 8.77332 22.2542 8.47215C21.5029 8.15862 20.6971 7.99814 19.8835 8.00002C18.7422 8.00002 17.6286 8.314 16.6609 8.90708C16.4294 9.04895 16.2095 9.20478 16.0011 9.37457C15.7928 9.20478 15.5729 9.04895 15.3413 8.90708C14.3736 8.314 13.2601 8.00002 12.1188 8.00002C11.2969 8.00002 10.5005 8.15817 9.74811 8.47215C9.02118 8.77451 8.36601 9.20943 7.80345 9.76298C7.24319 10.3122 6.79564 10.9664 6.48617 11.6887C6.16437 12.44 6 13.2377 6 14.0587C6 14.8332 6.15743 15.6403 6.46996 16.4613C6.73157 17.1474 7.10661 17.8591 7.58583 18.5778C8.34518 19.7151 9.38928 20.9013 10.6857 22.1037C12.8341 24.0969 14.9617 25.4738 15.052 25.5296L15.6006 25.8831C15.8437 26.039 16.1563 26.039 16.3993 25.8831L16.948 25.5296C17.0383 25.4715 19.1635 24.0969 21.3143 22.1037C22.6107 20.9013 23.6548 19.7151 24.4141 18.5778C24.8934 17.8591 25.2707 17.1474 25.53 16.4613C25.8426 15.6403 26 14.8332 26 14.0587C26.0023 13.2377 25.8379 12.44 25.5161 11.6887ZM16.0011 24.0434C16.0011 24.0434 7.75946 18.7383 7.75946 14.0587C7.75946 11.6887 9.71107 9.76763 12.1188 9.76763C13.8111 9.76763 15.2788 10.7166 16.0011 12.1027C16.7235 10.7166 18.1912 9.76763 19.8835 9.76763C22.2912 9.76763 24.2428 11.6887 24.2428 14.0587C24.2428 18.7383 16.0011 24.0434 16.0011 24.0434Z" fill="white"/>
</g>
</g>
<defs>
<clipPath id="clip0_0_1">
<rect width="1440" height="4584" fill="white" transform="translate(-380 -706)"/>
</clipPath>
</defs>
</svg>
