<svg width="13" height="18" viewBox="0 0 13 18" fill="none" xmlns="http://www.w3.org/2000/svg">
<rect width="13" height="18" fill="#1E1E1E"/>
<g id="listing page desktop" clip-path="url(#clip0_0_1)">
<rect width="1440" height="2746" transform="translate(-110 -682)" fill="#F3F2F2"/>
<g id="1">
<g id="Frame 7158" filter="url(#filter0_d_0_1)">
<rect x="-25" y="-384" width="407" height="481" rx="5" fill="white"/>
<path id="Vector" d="M7.30234 17.1556C9.03906 14.9493 13 9.60194 13 6.59832C13 2.9555 10.0885 0 6.5 0C2.91146 0 0 2.9555 0 6.59832C0 9.60194 3.96094 14.9493 5.69766 17.1556C6.11406 17.6814 6.88594 17.6814 7.30234 17.1556ZM6.5 8.79777C5.30495 8.79777 4.33333 7.81145 4.33333 6.59832C4.33333 5.38519 5.30495 4.39888 6.5 4.39888C7.69505 4.39888 8.66667 5.38519 8.66667 6.59832C8.66667 7.81145 7.69505 8.79777 6.5 8.79777Z" fill="#B1B1B1"/>
</g>
</g>
</g>
<defs>
<filter id="filter0_d_0_1" x="-39" y="-394" width="435" height="509" filterUnits="userSpaceOnUse" color-interpolation-filters="sRGB">
<feFlood flood-opacity="0" result="BackgroundImageFix"/>
<feColorMatrix in="SourceAlpha" type="matrix" values="0 0 0 0 0 0 0 0 0 0 0 0 0 0 0 0 0 0 127 0" result="hardAlpha"/>
<feMorphology radius="1" operator="dilate" in="SourceAlpha" result="effect1_dropShadow_0_1"/>
<feOffset dy="4"/>
<feGaussianBlur stdDeviation="6.5"/>
<feComposite in2="hardAlpha" operator="out"/>
<feColorMatrix type="matrix" values="0 0 0 0 0 0 0 0 0 0 0 0 0 0 0 0 0 0 0.15 0"/>
<feBlend mode="normal" in2="BackgroundImageFix" result="effect1_dropShadow_0_1"/>
<feBlend mode="normal" in="SourceGraphic" in2="effect1_dropShadow_0_1" result="shape"/>
</filter>
<clipPath id="clip0_0_1">
<rect width="1440" height="2746" fill="white" transform="translate(-110 -682)"/>
</clipPath>
</defs>
</svg>
