<svg width="18" height="18" viewBox="0 0 18 18" fill="none" xmlns="http://www.w3.org/2000/svg">
<rect width="18" height="18" fill="#1E1E1E"/>
<g id="detail page desktop 1" clip-path="url(#clip0_0_1)">
<rect width="1440" height="4584" transform="translate(-88 -1025)" fill="#F3F2F2"/>
<g id="Group">
<g id="Group_2">
<g id="Group_3">
<path id="Vector" d="M9.50171 7.06641H12.2005" stroke="#3C3C3C"/>
</g>
<g id="Group_4">
<path id="Vector_2" d="M3.65454 4.63965H14.4497" stroke="#3C3C3C"/>
</g>
<g id="Group_5">
<path id="Vector_3" d="M12.2005 8.88639V2.81994C12.2005 1.81472 11.5965 1 10.8512 1C10.1058 1 9.50176 1.81472 9.50176 2.81994M9.50176 8.88639V2.81994C9.50176 1.81472 8.89769 1 8.15237 1C7.40706 1 6.80298 1.81472 6.80298 2.81994" stroke="#3C3C3C"/>
</g>
</g>
<g id="Mask group">
<mask id="mask0_0_1" style="mask-type:alpha" maskUnits="userSpaceOnUse" x="0" y="5" width="18" height="13">
<g id="Group_6">
<g id="Group_7">
<g id="Group_8">
<path id="Vector_4" d="M18 5.77637V17.9984H0V5.77637H18Z" fill="black"/>
</g>
</g>
</g>
</mask>
<g mask="url(#mask0_0_1)">
<g id="Group_9">
<g id="Group_10">
<g id="Group_11">
<path id="Vector_5" d="M3.65989 15.8484C3.33423 15.8484 3.00858 15.6968 2.76029 15.3935C2.512 15.0901 2.18635 14.9385 1.8607 14.9385C1.53504 14.9385 1.20939 15.0901 0.961102 15.3935C0.712813 15.6968 0.38716 15.8484 0.0615064 15.8484C-0.264147 15.8484 -0.5898 15.6968 -0.838089 15.3935C-1.08638 15.0901 -1.41203 14.9385 -1.73768 14.9385C-2.06334 14.9385 -2.38899 15.0901 -2.63728 15.3935C-2.88557 15.6968 -3.21122 15.8484 -3.53687 15.8484C-3.86253 15.8484 -4.18818 15.6968 -4.43647 15.3935C-4.68476 15.0901 -5.01041 14.9385 -5.33606 14.9385C-5.66172 14.9385 -5.98737 15.0901 -6.23566 15.3935C-6.48395 15.6968 -6.8096 15.8484 -7.13525 15.8484M25.2448 15.8569C24.9191 15.8569 24.5935 15.7053 24.3452 15.402C24.0969 15.0986 23.7712 14.947 23.4456 14.947C23.1199 14.947 22.7943 15.0986 22.546 15.402C22.2977 15.7053 21.972 15.8569 21.6464 15.8569C21.3207 15.8569 20.9951 15.7053 20.7468 15.402C20.4985 15.0986 20.1729 14.947 19.8472 14.947C19.5215 14.947 19.1959 15.0986 18.9476 15.402C18.6993 15.7053 18.3737 15.8569 18.048 15.8569C17.7224 15.8569 17.3967 15.7053 17.1484 15.402C16.9001 15.0986 16.5745 14.947 16.2488 14.947C15.9232 14.947 15.5975 15.0986 15.3492 15.402C15.1009 15.7053 14.7753 15.8569 14.4496 15.8569M14.4501 15.8624C14.1244 15.8624 13.7988 15.7107 13.5505 15.4074C13.3022 15.1041 12.9765 14.9524 12.6509 14.9524C12.3252 14.9524 11.9996 15.1041 11.7513 15.4074C11.503 15.7107 11.1774 15.8624 10.8517 15.8624C10.526 15.8624 10.2004 15.7107 9.95211 15.4074C9.70382 15.1041 9.37816 14.9524 9.05251 14.9524C8.72686 14.9524 8.4012 15.1041 8.15292 15.4074C7.90463 15.7107 7.57897 15.8624 7.25332 15.8624C6.92767 15.8624 6.60201 15.7107 6.35372 15.4074C6.10544 15.1041 5.77978 14.9524 5.45413 14.9524C5.12848 14.9524 4.80282 15.1041 4.55453 15.4074C4.30625 15.7107 3.98059 15.8624 3.65494 15.8624" stroke="#3C3C3C"/>
</g>
<g id="Group_12">
<path id="Vector_6" d="M3.65989 12.8148C3.33423 12.8148 3.00858 12.6631 2.76029 12.3598C2.512 12.0564 2.18635 11.9048 1.8607 11.9048C1.53504 11.9048 1.20939 12.0564 0.961102 12.3598C0.712813 12.6631 0.38716 12.8148 0.0615064 12.8148C-0.264147 12.8148 -0.5898 12.6631 -0.838089 12.3598C-1.08638 12.0564 -1.41203 11.9048 -1.73768 11.9048C-2.06334 11.9048 -2.38899 12.0564 -2.63728 12.3598C-2.88557 12.6631 -3.21122 12.8148 -3.53687 12.8148C-3.86253 12.8148 -4.18818 12.6631 -4.43647 12.3598C-4.68476 12.0564 -5.01041 11.9048 -5.33606 11.9048C-5.66172 11.9048 -5.98737 12.0564 -6.23566 12.3598C-6.48395 12.6631 -6.8096 12.8148 -7.13525 12.8148M25.2448 12.8232C24.9191 12.8232 24.5935 12.6716 24.3452 12.3683C24.0969 12.0649 23.7712 11.9133 23.4456 11.9133C23.1199 11.9133 22.7943 12.0649 22.546 12.3683C22.2977 12.6716 21.972 12.8232 21.6464 12.8232C21.3207 12.8232 20.9951 12.6716 20.7468 12.3683C20.4985 12.0649 20.1729 11.9133 19.8472 11.9133C19.5215 11.9133 19.1959 12.0649 18.9476 12.3683C18.6993 12.6716 18.3737 12.8232 18.048 12.8232C17.7224 12.8232 17.3967 12.6716 17.1484 12.3683C16.9001 12.0649 16.5745 11.9133 16.2488 11.9133C15.9232 11.9133 15.5975 12.0649 15.3492 12.3683C15.1009 12.6716 14.7753 12.8232 14.4496 12.8232M14.4501 12.8287C14.1244 12.8287 13.7988 12.677 13.5505 12.3737C13.3022 12.0704 12.9765 11.9187 12.6509 11.9187C12.3252 11.9187 11.9996 12.0704 11.7513 12.3737C11.503 12.677 11.1774 12.8287 10.8517 12.8287C10.526 12.8287 10.2004 12.677 9.95211 12.3737C9.70382 12.0704 9.37816 11.9187 9.05251 11.9187C8.72686 11.9187 8.4012 12.0704 8.15292 12.3737C7.90463 12.677 7.57897 12.8287 7.25332 12.8287C6.92767 12.8287 6.60201 12.677 6.35372 12.3737C6.10544 12.0704 5.77978 11.9187 5.45413 11.9187C5.12848 11.9187 4.80282 12.0704 4.55453 12.3737C4.30625 12.677 3.98059 12.8287 3.65494 12.8287" stroke="#3C3C3C"/>
</g>
<g id="Group_13">
<path id="Vector_7" d="M3.65989 9.78155C3.33423 9.78155 3.00858 9.62989 2.76029 9.32657C2.512 9.02324 2.18635 8.87158 1.8607 8.87158C1.53504 8.87158 1.20939 9.02324 0.961102 9.32657C0.712813 9.62989 0.38716 9.78155 0.0615064 9.78155C-0.264147 9.78155 -0.5898 9.62989 -0.838089 9.32657C-1.08638 9.02324 -1.41203 8.87158 -1.73768 8.87158C-2.06334 8.87158 -2.38899 9.02324 -2.63728 9.32657C-2.88557 9.62989 -3.21122 9.78155 -3.53687 9.78155C-3.86253 9.78155 -4.18818 9.62989 -4.43647 9.32657C-4.68476 9.02324 -5.01041 8.87158 -5.33606 8.87158C-5.66172 8.87158 -5.98737 9.02324 -6.23566 9.32657C-6.48395 9.62989 -6.8096 9.78155 -7.13525 9.78155M25.2448 9.79004C24.9191 9.79004 24.5935 9.63838 24.3452 9.33506C24.0969 9.03174 23.7712 8.88008 23.4456 8.88008C23.1199 8.88008 22.7943 9.03174 22.546 9.33506C22.2977 9.63838 21.972 9.79004 21.6464 9.79004C21.3207 9.79004 20.9951 9.63838 20.7468 9.33506C20.4985 9.03174 20.1729 8.88008 19.8472 8.88008C19.5215 8.88008 19.1959 9.03174 18.9476 9.33506C18.6993 9.63838 18.3737 9.79004 18.048 9.79004C17.7224 9.79004 17.3967 9.63838 17.1484 9.33506C16.9001 9.03174 16.5745 8.88008 16.2488 8.88008C15.9232 8.88008 15.5975 9.03174 15.3492 9.33506C15.1009 9.63838 14.7753 9.79004 14.4496 9.79004M14.4501 9.7955C14.1244 9.7955 13.7988 9.64384 13.5505 9.34052C13.3022 9.0372 12.9765 8.88553 12.6509 8.88553C12.3252 8.88553 11.9996 9.0372 11.7513 9.34052C11.503 9.64384 11.1774 9.7955 10.8517 9.7955C10.526 9.7955 10.2004 9.64384 9.95211 9.34052C9.70382 9.0372 9.37816 8.88553 9.05251 8.88553C8.72686 8.88553 8.4012 9.0372 8.15292 9.34052C7.90463 9.64384 7.57897 9.7955 7.25332 9.7955C6.92767 9.7955 6.60201 9.64384 6.35372 9.34052C6.10544 9.0372 5.77978 8.88553 5.45413 8.88553C5.12848 8.88553 4.80282 9.0372 4.55453 9.34052C4.30625 9.64384 3.98059 9.7955 3.65494 9.7955" stroke="#3C3C3C"/>
</g>
</g>
</g>
</g>
</g>
</g>
</g>
<defs>
<clipPath id="clip0_0_1">
<rect width="1440" height="4584" fill="white" transform="translate(-88 -1025)"/>
</clipPath>
</defs>
</svg>
