<svg width="18" height="18" viewBox="0 0 18 18" fill="none" xmlns="http://www.w3.org/2000/svg">
<rect width="18" height="18" fill="#1E1E1E"/>
<g id="detail page desktop 1" clip-path="url(#clip0_0_1)">
<rect width="1440" height="4584" transform="translate(-88 -1247)" fill="#F3F2F2"/>
<g id="Group">
<g id="Group_2">
<g id="Group_3">
<g id="Group_4">
<g id="Group_5">
<path id="Vector" d="M8.94263 6.42128H14.5386M9.00009 0V1.64617V11.1229M9.00009 0.544216C12.0587 0.544216 14.5386 2.64938 14.5386 5.24587V11.1229H9.00009C9.00009 11.1229 9.00009 2.3808 9.00009 0.544216Z" stroke="#3C3C3C"/>
</g>
</g>
</g>
</g>
<g id="Group_6">
<g id="Group_7">
<g id="Group_8">
<g id="Group_9">
<path id="Vector_2" d="M9.05737 6.42128H3.46145M8.99991 0V1.64617V11.1229M8.99991 0.544216C5.9413 0.544216 3.46145 2.64938 3.46145 5.24587V11.1229H8.99991C8.99991 11.1229 8.99991 2.3808 8.99991 0.544216Z" stroke="#3C3C3C"/>
</g>
</g>
</g>
</g>
<g id="Group_10">
<g id="Group_11">
<g id="Group_12">
<path id="Vector_3" d="M15.9231 11.123V17.0001" stroke="#3C3C3C"/>
</g>
<g id="Group_13">
<path id="Vector_4" d="M13.1538 11.123V17.0001" stroke="#3C3C3C"/>
</g>
<g id="Group_14">
<path id="Vector_5" d="M10.3845 11.123V17.0001" stroke="#3C3C3C"/>
</g>
<g id="Group_15">
<path id="Vector_6" d="M7.61548 11.123V17.0001" stroke="#3C3C3C"/>
</g>
<g id="Group_16">
<path id="Vector_7" d="M4.84619 11.123V17.0001" stroke="#3C3C3C"/>
</g>
<g id="Group_17">
<path id="Vector_8" d="M2.0769 11.123V17.0001" stroke="#3C3C3C"/>
</g>
<g id="Group_18">
<path id="Vector_9" d="M0 17H18" stroke="#3C3C3C"/>
</g>
<g id="Group_19">
<path id="Vector_10" d="M0 11.123H18" stroke="#3C3C3C"/>
</g>
</g>
</g>
</g>
</g>
<defs>
<clipPath id="clip0_0_1">
<rect width="1440" height="4584" fill="white" transform="translate(-88 -1247)"/>
</clipPath>
</defs>
</svg>
