<svg width="20" height="19" viewBox="0 0 20 19" fill="none" xmlns="http://www.w3.org/2000/svg">
<rect width="20" height="19" fill="#1E1E1E"/>
<g id="detail page desktop 1" clip-path="url(#clip0_0_1)">
<rect width="1440" height="4584" transform="translate(-87 -1047)" fill="#F3F2F2"/>
<g id="Group">
<g id="Group_2">
<path id="Vector" d="M1.69231 1H18.3077C18.6898 1 19 1.29292 19 1.65385V17.3462C19 17.7071 18.6898 18 18.3077 18H1.69231C1.31015 18 1 17.7071 1 17.3462V1.65385C1 1.29292 1.31015 1 1.69231 1Z" stroke="#3C3C3C"/>
</g>
<g id="Group_3">
<path id="Vector_2" d="M9.99989 4.26904C13.0585 4.26904 15.5383 6.61112 15.5383 9.49981C15.5383 12.3885 13.0585 14.7306 9.99989 14.7306C6.94127 14.7306 4.46143 12.3885 4.46143 9.49981C4.46143 6.61112 6.94127 4.26904 9.99989 4.26904Z" stroke="#3C3C3C"/>
</g>
<g id="Group_4">
<path id="Vector_3" d="M3.76946 2.96094C4.15161 2.96094 4.46176 3.25386 4.46176 3.61478C4.46176 3.97571 4.15161 4.26863 3.76946 4.26863C3.3873 4.26863 3.07715 3.97571 3.07715 3.61478C3.07715 3.25386 3.3873 2.96094 3.76946 2.96094Z" fill="#3C3C3C"/>
</g>
</g>
</g>
<defs>
<clipPath id="clip0_0_1">
<rect width="1440" height="4584" fill="white" transform="translate(-87 -1047)"/>
</clipPath>
</defs>
</svg>
